<svg width="277" height="64" viewBox="0 0 277 64" fill="none" xmlns="http://www.w3.org/2000/svg">
<ellipse cx="205.472" cy="31.9999" rx="2.53012" ry="2.53846" fill="#AAAAAA"/>
<ellipse cx="191.974" cy="31.9999" rx="2.53012" ry="2.53846" fill="#AAAAAA"/>
<ellipse cx="178.481" cy="31.9999" rx="2.53012" ry="2.53846" fill="#AAAAAA"/>
<ellipse cx="164.987" cy="31.9999" rx="2.53012" ry="2.53846" fill="#AAAAAA"/>
<ellipse cx="111.014" cy="31.9999" rx="2.53012" ry="2.53846" fill="#AAAAAA"/>
<ellipse cx="97.5164" cy="31.9999" rx="2.53012" ry="2.53846" fill="#AAAAAA"/>
<ellipse cx="84.0223" cy="31.9999" rx="2.53012" ry="2.53846" fill="#AAAAAA"/>
<ellipse cx="70.5301" cy="31.9999" rx="2.53012" ry="2.53846" fill="#AAAAAA"/>
<path d="M120.618 42.35L136.654 51.6157C138.012 52.4394 138.631 51.861 139.19 51.6076L156.199 41.7072C156.805 41.3177 157.221 40.981 157.221 40.2915C157.221 39.6021 156.706 39.2546 156.397 39.0603L151.817 35.9587L156.17 33.3951C156.876 33.037 157.627 32.2311 157.627 31.2193V24.3955C157.627 22.6217 156.627 22.0674 156.146 21.7988C156.102 21.772 139.457 12.0273 139.457 12.0273C138.012 11.0594 136.832 11.6978 136.344 12.0273L119.603 21.9009C118.852 22.4193 118.613 22.9754 118.618 23.5377C118.625 24.3874 119.489 25.0303 119.607 25.1091L123.956 27.7308L119.335 30.5863C118.611 31.034 118.56 31.8676 118.56 31.8676C118.507 32.241 118.507 38.5195 118.507 38.5195C118.507 40.1671 118.655 41.2415 120.618 42.35ZM154.201 40.4267L137.902 49.6843L122.146 40.6765L127.088 37.7996L137.315 43.7316C137.625 43.9564 138.184 43.9403 138.476 43.7791L149.507 37.3036L154.201 40.4267ZM155.587 30.5469L151.184 27.8007L155.573 25.1503L155.587 30.5469ZM139.111 14.5837L154.122 23.4634L149.197 26.5194L139.101 20.3116L139.111 14.5837ZM137.899 22.259L147.005 27.8616L137.899 33.1937C137.897 33.1945 137.895 33.1949 137.893 33.1949C137.891 33.1949 137.889 33.1945 137.887 33.1937L128.576 27.7389L137.887 22.259H137.899ZM121.402 23.5323L136.712 14.5631V20.3116L126.086 26.4003L121.402 23.5323ZM126.241 29.1142L137.299 35.5889C137.477 35.6885 137.677 35.7413 137.88 35.7424C138.083 35.7435 138.283 35.6929 138.462 35.5951L149.084 29.1375L153.885 32.0923L137.886 41.3633L121.601 31.8461L126.241 29.1142ZM120.665 34.004L124.949 36.4852L120.665 39.0075V34.004Z" fill="#F7AB1B"/>
<rect x="0.5" y="0.5" width="63" height="63" rx="31.5" fill="white"/>
<path d="M28 37.8333H33.2917V27.1667H28V37.8333ZM25.3333 21.875H22.625C21.9167 21.875 21.3333 22.4583 21.3333 23.1667V25.8333H26.6667V23.1667C26.6667 22.4583 26.0417 21.875 25.3333 21.875ZM28 41.8333C28 42.5417 28.5833 43.125 29.3333 43.125H31.9583C32.6667 43.125 33.2917 42.5 33.25 41.7917V39.125H27.9583L28 41.8333ZM21.3333 41.8333C21.3333 42.5417 21.9167 43.125 22.625 43.125H25.2917C26 43.125 26.5833 42.5 26.5833 41.8333L26.6667 39.1667H21.3333V41.8333ZM21.3333 37.8333H26.6667V27.1667H21.3333V37.8333ZM38.7917 26.7083L33.6667 28.0833L36.4167 38.3333L41.5833 36.9583L38.7917 26.7083ZM42.5833 40.8333L41.9167 38.25L36.75 39.625L37.4583 42.2083C37.625 42.9167 38.375 43.3333 39.0833 43.125L41.6667 42.4583C42.375 42.25 42.7917 41.5417 42.5833 40.8333ZM37.7917 22.8333C37.5833 22.125 36.8333 21.7083 36.125 21.9167L33.5833 22.5833C33.4167 22.625 33.3333 22.7083 33.2083 22.75C33.0417 22.25 32.5417 21.8333 31.9583 21.8333H29.3333C28.625 21.8333 28 22.4583 28 23.1667V25.8333L33.0833 25.875L33.3333 26.7917L38.4583 25.4167L37.7917 22.8333Z" fill="#AB4ABA"/>
<rect x="0.5" y="0.5" width="63" height="63" rx="31.5" stroke="#EAEAEA"/>
<rect x="213" y="0.5" width="63" height="63" rx="31.5" fill="white"/>
<path d="M251.78 38.723L255.438 45.123C255.491 45.1768 255.545 45.2843 255.653 45.3381C255.922 45.4995 256.298 45.3919 256.459 45.123L260.439 38.2927C260.601 37.9701 260.601 37.5936 260.439 37.2709L256.191 30.0104C256.137 29.9566 256.029 29.9028 255.975 29.9028C255.868 29.9028 255.814 29.9566 255.76 30.0104L251.834 36.8406C251.512 37.4322 250.866 37.7549 250.221 37.7549H250.167C250.812 37.8087 251.458 38.1852 251.78 38.723Z" fill="#CF002C"/>
<path d="M242.26 37.7549C242.153 37.7549 242.099 37.8087 242.045 37.9162C241.991 37.97 241.991 38.0776 242.045 38.1851L246.24 45.4994C246.402 45.8221 246.778 45.9835 247.101 45.9835H255.275C255.706 45.9835 256.028 45.7683 256.244 45.3919L256.405 45.0692L252.694 37.7549H242.26V37.7549Z" fill="#DD3E56"/>
<path d="M236.667 37.7551H229.299C229.192 37.7551 229.084 37.7551 229.03 37.8089C228.761 37.9702 228.654 38.3467 228.815 38.6156L232.741 45.3921C232.902 45.7148 233.279 45.8761 233.602 45.9299H241.992C242.153 45.9299 242.26 45.7685 242.26 45.661C242.26 45.6072 242.26 45.6072 242.26 45.5534L238.334 38.777C238.012 38.1854 238.012 37.4862 238.334 36.8946V36.8408C237.904 37.3786 237.313 37.7551 236.667 37.7551Z" fill="#CF002C"/>
<path d="M245.004 25.2238L248.715 18.8776C248.715 18.77 248.769 18.7162 248.769 18.6087C248.769 18.286 248.5 18.0171 248.177 18.0171H240.379C240.003 18.0171 239.68 18.1784 239.519 18.5011L235.27 25.7616C235.216 25.8692 235.216 25.923 235.27 26.0305C235.324 26.0843 235.377 26.1381 235.485 26.1919H243.337C243.982 26.1919 244.628 26.5684 244.951 27.1062V27.1599C244.628 26.5683 244.628 25.8154 245.004 25.2238Z" fill="#CF002C"/>
<path d="M242.208 30.064C242.261 29.9565 242.261 29.9027 242.208 29.7951C242.154 29.7414 242.1 29.6876 241.992 29.6338H233.549C233.172 29.6338 232.85 29.8489 232.688 30.1178L228.601 37.2708C228.386 37.6472 228.386 38.0775 228.601 38.4002L228.816 38.7229L237.744 37.9699L238.335 36.8405L242.208 30.064Z" fill="#DD3E56"/>
<path d="M248.931 33.9364C248.985 33.9902 249.038 34.044 249.146 34.044C249.254 34.044 249.307 33.9902 249.361 33.9364L253.61 26.6221C253.771 26.2994 253.771 25.923 253.61 25.6003L249.522 18.5549C249.307 18.2322 248.931 18.0171 248.554 18.0171H248.178L244.306 25.9768L245.059 27.2137L248.931 33.9364Z" fill="#DD3E56"/>
<rect x="213" y="0.5" width="63" height="63" rx="31.5" stroke="#EAEAEA"/>
</svg>
