<svg width="26" height="23" viewBox="0 0 26 23" fill="none" xmlns="http://www.w3.org/2000/svg">
<g clip-path="url(#clip0_90_319820)">
<path d="M20.7792 21.0879H0.991125C0.444403 21.0879 0.00146484 21.515 0.00146484 22.0427C0.00146484 22.5695 0.444403 22.9967 0.991125 22.9967H20.7788C21.3255 22.9967 21.7684 22.5695 21.7684 22.0427C21.768 21.515 21.325 21.0879 20.7792 21.0879Z" fill="#2D2D2D"/>
<path d="M2.22989 18.6047C1.68317 18.6047 1.24023 19.0318 1.24023 19.5591C1.24023 20.0863 1.68317 20.5139 2.22989 20.5139H19.5443C20.091 20.5139 20.534 20.0863 20.534 19.5591C20.534 19.0318 20.091 18.6047 19.5443 18.6047H19.2974V10.017H19.5443C19.8181 10.017 20.0387 9.8034 20.0387 9.54022C20.0387 9.27705 19.8172 9.06348 19.5443 9.06348H2.22989C1.95653 9.06348 1.73553 9.27705 1.73553 9.54022C1.73553 9.8034 1.957 10.017 2.22989 10.017H2.47731V18.6042H2.22989V18.6047ZM17.318 10.017V18.6042H14.35V10.017H17.318ZM12.3707 10.017V18.6042H9.40261V10.017H12.3707ZM4.4557 10.017H7.42376V18.6042H4.4557V10.017Z" fill="#2D2D2D"/>
<path d="M0.99212 8.20932H20.7798C20.783 8.20932 20.7867 8.20932 20.7895 8.20932C21.3367 8.20932 21.7792 7.78217 21.7792 7.25493C21.7792 6.83582 21.4993 6.48061 21.1106 6.35193L11.2927 2.09159C11.0347 1.97989 10.7395 1.97989 10.481 2.09159L0.586249 6.38499C0.160454 6.56997 -0.0735249 7.01589 0.0246998 7.45555C0.122461 7.89521 0.525553 8.20932 0.99212 8.20932Z" fill="#2D2D2D"/>
</g>
<circle cx="19.5" cy="6.5" r="6.5" fill="white"/>
<circle cx="19.5" cy="6.5" r="5.5" fill="#399847"/>
<path d="M18.9719 3.50732C18.9719 3.22126 19.192 2.9792 19.5 2.9792C19.7861 2.9792 20.0282 3.22126 20.0282 3.50732V6.23597L21.8986 7.46826C22.1407 7.6443 22.2067 7.97438 22.0306 8.21644C21.8766 8.4585 21.5465 8.52451 21.3045 8.34847L19.192 6.94014C19.0599 6.85212 18.9719 6.67607 18.9719 6.50003V3.50732Z" fill="white"/>
<defs>
<clipPath id="clip0_90_319820">
<rect width="21.7767" height="21.0005" fill="white" transform="translate(0 1.99951)"/>
</clipPath>
</defs>
</svg>
