<svg width="69" height="69" viewBox="0 0 69 69" fill="none" xmlns="http://www.w3.org/2000/svg">
<path d="M48.0732 47.3985L54.8731 59.2985C54.9732 59.3985 55.0732 59.5985 55.2732 59.6985C55.7732 59.9985 56.4732 59.7985 56.7732 59.2985L64.1731 46.5985C64.4731 45.9985 64.4731 45.2985 64.1731 44.6985L56.2732 31.1985C56.1732 31.0985 55.9732 30.9985 55.8731 30.9985C55.6732 30.9985 55.5731 31.0985 55.4731 31.1985L48.1731 43.8985C47.5731 44.9985 46.3731 45.5985 45.1731 45.5985H45.0732C46.2732 45.6985 47.4732 46.3985 48.0732 47.3985Z" fill="#CF002C"/>
<path d="M30.3732 45.5986C30.1732 45.5986 30.0732 45.6986 29.9732 45.8986C29.8732 45.9986 29.8732 46.1986 29.9732 46.3986L37.7732 59.9986C38.0732 60.5986 38.7732 60.8986 39.3732 60.8986H54.5732C55.3732 60.8986 55.9732 60.4986 56.3732 59.7986L56.6732 59.1986L49.7732 45.5986H30.3732Z" fill="#DD3E56"/>
<path d="M19.9732 45.5986H6.27316C6.07316 45.5986 5.87316 45.5986 5.77316 45.6986C5.27316 45.9986 5.07316 46.6986 5.37316 47.1986L12.6732 59.7986C12.9732 60.3986 13.6732 60.6986 14.2732 60.7986H29.8732C30.1732 60.7986 30.3732 60.4986 30.3732 60.2986C30.3732 60.1986 30.3732 60.1986 30.3732 60.0986L23.0732 47.4986C22.4732 46.3986 22.4732 45.0986 23.0732 43.9986V43.8986C22.2732 44.8986 21.1732 45.5986 19.9732 45.5986Z" fill="#CF002C"/>
<path d="M35.4732 22.2986L42.3732 10.4986C42.3732 10.2986 42.4732 10.1986 42.4732 9.99856C42.4732 9.39856 41.9732 8.89856 41.3732 8.89856H26.8732C26.1732 8.89856 25.5732 9.19856 25.2732 9.79856L17.3732 23.2986C17.2732 23.4986 17.2732 23.5986 17.3732 23.7986C17.4732 23.8986 17.5732 23.9986 17.7732 24.0986H32.3732C33.5732 24.0986 34.7732 24.7986 35.3732 25.7986V25.8986C34.7732 24.7986 34.7732 23.3986 35.4732 22.2986Z" fill="#CF002C"/>
<path d="M30.2732 31.2985C30.3732 31.0985 30.3732 30.9985 30.2732 30.7985C30.1732 30.6985 30.0732 30.5985 29.8732 30.4985H14.1732C13.4732 30.4985 12.8732 30.8985 12.5732 31.3985L4.97316 44.6985C4.57316 45.3985 4.57316 46.1985 4.97316 46.7985L5.37316 47.3985L21.9732 45.9985L23.0732 43.8985L30.2732 31.2985Z" fill="#DD3E56"/>
<path d="M42.7732 38.4986C42.8732 38.5986 42.9732 38.6986 43.1732 38.6986C43.3732 38.6986 43.4732 38.5986 43.5732 38.4986L51.4732 24.8986C51.7732 24.2986 51.7732 23.5986 51.4732 22.9986L43.8732 9.89856C43.4732 9.29856 42.7732 8.89856 42.0732 8.89856H41.3732L34.1732 23.6986L35.5732 25.9986L42.7732 38.4986Z" fill="#DD3E56"/>
</svg>
