<svg width="69" height="69" viewBox="0 0 69 69" fill="none" xmlns="http://www.w3.org/2000/svg">
<path d="M35.6357 16.5985H32.5357C32.2357 17.8985 32.1357 19.0985 31.9357 20.3985L29.7357 33.8985H33.5357C38.4357 33.8985 42.0357 29.8985 42.0357 23.6985C42.0357 19.3985 39.5357 16.5985 35.6357 16.5985Z" fill="url(#paint0_linear_337_1093)"/>
<path d="M54.3357 39.7986C66.0357 31.0986 63.9357 21.1986 63.9357 21.1986C63.0357 9.29855 52.9357 1.29855 38.4357 1.29855C38.4357 1.29855 20.7357 1.99855 17.5357 2.69855C13.7357 3.49855 11.1357 6.99855 11.4357 10.7986C11.4357 13.3986 11.3357 16.1986 10.7357 19.0986L5.63566 52.1986C5.23566 54.0986 4.23566 60.0986 8.03566 64.5986C9.53566 66.3986 12.3357 68.4986 17.2357 68.4986C19.4357 68.4986 25.4357 68.1985 30.3357 65.9986C31.6357 65.3986 32.7357 64.4986 33.5357 63.3986C36.1357 66.4986 40.0357 68.6986 45.7357 68.6986C50.7357 68.6986 55.6357 67.3986 60.0357 65.1986C60.0357 65.1986 64.3357 62.0986 62.5357 57.5986C58.6357 51.8986 54.3357 39.7986 54.3357 39.7986ZM54.0357 59.3986C51.4357 60.1986 48.4357 60.7985 45.7357 60.6986C42.9357 60.6986 39.2357 59.9986 36.8357 53.1986L32.8357 41.4986H28.8357L27.0357 52.5986C26.7357 53.8986 26.6357 55.0986 26.6357 56.3986V56.6986C26.6357 57.3986 26.7357 58.0986 27.0357 58.7986C23.9357 60.1986 19.8357 60.5986 17.3357 60.5986C15.2357 60.5986 13.3357 59.8986 13.1357 56.2986C13.1357 55.2986 13.2357 54.3986 13.4357 53.3986L18.5357 20.2986C18.9357 17.7986 19.2357 15.1986 19.2357 12.5986C19.2357 11.7986 19.2357 9.99855 19.2357 9.99855C20.9357 9.59855 26.9357 8.89855 32.3357 8.89855H32.4357C32.7357 8.89855 33.0357 8.89855 33.2357 8.89855H38.2357C41.8357 8.79855 45.3357 9.59855 48.6357 10.9986C49.4357 11.3986 50.4357 11.9986 51.1357 12.4986C51.8357 13.0986 52.5357 13.7986 53.2357 14.3986C54.0357 15.4986 54.7357 16.5986 55.3357 17.9986C55.7357 19.3986 56.0357 20.7986 56.0357 22.2986C56.0357 22.6986 56.0357 23.0986 56.0357 23.5986C55.5357 29.6986 51.6357 34.6986 45.6357 37.8986L51.0357 52.1986C52.5357 56.0986 53.5357 57.5986 55.2357 58.8986C54.8357 59.1986 54.4357 59.2986 54.0357 59.3986Z" fill="url(#paint1_linear_337_1093)"/>
<defs>
<linearGradient id="paint0_linear_337_1093" x1="39.6595" y1="17.8207" x2="30.2602" y2="34.1007" gradientUnits="userSpaceOnUse">
<stop/>
<stop offset="1"/>
</linearGradient>
<linearGradient id="paint1_linear_337_1093" x1="54.174" y1="5.31595" x2="16.6416" y2="70.324" gradientUnits="userSpaceOnUse">
<stop/>
<stop offset="1"/>
</linearGradient>
</defs>
</svg>
