<svg width="160" height="90" viewBox="0 0 160 90" fill="none" xmlns="http://www.w3.org/2000/svg">
<rect width="160" height="90" fill="white"/>
<circle cx="5.5" cy="5" r="1.5" fill="#D9D9D9"/>
<circle cx="10" cy="5" r="1.5" fill="#D9D9D9"/>
<circle cx="14.5" cy="5" r="1.5" fill="#D9D9D9"/>
<rect x="40" y="3" width="80" height="4" rx="2" fill="#D9D9D9"/>
<rect y="10" width="160" height="80" fill="#D9D9D9"/>
<path d="M40 13H60V17H40V13Z" fill="white"/>
<path d="M40 65H50V75H40V65Z" fill="white"/>
<path d="M60 65H70V75H60V65Z" fill="white"/>
<path d="M80 65H90V75H80V65Z" fill="white"/>
<path d="M100 65H110V75H100V65Z" fill="white"/>
<path d="M40 25H88V55H40V25Z" fill="white"/>
<path d="M115 13H120V14H115V13Z" fill="white"/>
<path d="M115 15H120V16H115V15Z" fill="white"/>
<path d="M115 17H120V18H115V17Z" fill="white"/>
<rect x="40" y="77" width="12" height="2" fill="white"/>
<rect x="60" y="77" width="10" height="2" fill="white"/>
<rect x="80" y="77" width="12" height="2" fill="white"/>
<rect x="100" y="77" width="16" height="2" fill="white"/>
<rect x="40" y="80" width="16" height="1" fill="white"/>
<rect x="60" y="80" width="16" height="1" fill="white"/>
<rect x="80" y="80" width="16" height="1" fill="white"/>
<rect x="100" y="80" width="16" height="1" fill="white"/>
<rect x="40" y="82" width="16" height="1" fill="white"/>
<rect x="60" y="82" width="16" height="1" fill="white"/>
<rect x="80" y="82" width="16" height="1" fill="white"/>
<rect x="100" y="82" width="15" height="1" fill="white"/>
<rect x="40" y="84" width="10" height="1" fill="white"/>
<rect x="60" y="84" width="5" height="1" fill="white"/>
<rect x="80" y="84" width="15" height="1" fill="white"/>
<rect x="90" y="47" width="12" height="4" rx="2" fill="white"/>
<path d="M90 31H120" stroke="white" stroke-width="4"/>
<path d="M90 36H110" stroke="white" stroke-width="4"/>
<path d="M90 41H120" stroke="white" stroke-width="2"/>
<path d="M90 44H115" stroke="white" stroke-width="2"/>
</svg>
