<svg width="581" height="327" viewBox="0 0 581 327" fill="none" xmlns="http://www.w3.org/2000/svg">
<rect width="581" height="327" fill="white"/>
<path d="M35.0568 20.5V11.7727H36.1136V15.6591H40.767V11.7727H41.8239V20.5H40.767V16.5966H36.1136V20.5H35.0568ZM46.4624 20.6364C45.8714 20.6364 45.353 20.4957 44.907 20.2145C44.4638 19.9332 44.1172 19.5398 43.8672 19.0341C43.62 18.5284 43.4964 17.9375 43.4964 17.2614C43.4964 16.5795 43.62 15.9844 43.8672 15.4759C44.1172 14.9673 44.4638 14.5724 44.907 14.2912C45.353 14.0099 45.8714 13.8693 46.4624 13.8693C47.0533 13.8693 47.5703 14.0099 48.0135 14.2912C48.4595 14.5724 48.8061 14.9673 49.0533 15.4759C49.3033 15.9844 49.4283 16.5795 49.4283 17.2614C49.4283 17.9375 49.3033 18.5284 49.0533 19.0341C48.8061 19.5398 48.4595 19.9332 48.0135 20.2145C47.5703 20.4957 47.0533 20.6364 46.4624 20.6364ZM46.4624 19.733C46.9112 19.733 47.2805 19.6179 47.5703 19.3878C47.8601 19.1577 48.0746 18.8551 48.2138 18.4801C48.353 18.1051 48.4226 17.6989 48.4226 17.2614C48.4226 16.8239 48.353 16.4162 48.2138 16.0384C48.0746 15.6605 47.8601 15.3551 47.5703 15.1222C47.2805 14.8892 46.9112 14.7727 46.4624 14.7727C46.0135 14.7727 45.6442 14.8892 45.3544 15.1222C45.0646 15.3551 44.8501 15.6605 44.7109 16.0384C44.5717 16.4162 44.5021 16.8239 44.5021 17.2614C44.5021 17.6989 44.5717 18.1051 44.7109 18.4801C44.8501 18.8551 45.0646 19.1577 45.3544 19.3878C45.6442 19.6179 46.0135 19.733 46.4624 19.733ZM50.9634 20.5V13.9545H51.935V14.9773H52.0202C52.1566 14.6278 52.3768 14.3565 52.6808 14.1634C52.9847 13.9673 53.3498 13.8693 53.7759 13.8693C54.2077 13.8693 54.5671 13.9673 54.854 14.1634C55.1438 14.3565 55.3697 14.6278 55.5316 14.9773H55.5998C55.7674 14.6392 56.0188 14.3707 56.354 14.1719C56.6893 13.9702 57.0913 13.8693 57.56 13.8693C58.1452 13.8693 58.6239 14.0526 58.9961 14.419C59.3683 14.7827 59.5543 15.3494 59.5543 16.1193V20.5H58.5487V16.1193C58.5487 15.6364 58.4165 15.2912 58.1523 15.0838C57.8881 14.8764 57.5771 14.7727 57.2191 14.7727C56.7589 14.7727 56.4023 14.9119 56.1495 15.1903C55.8967 15.4659 55.7702 15.8153 55.7702 16.2386V20.5H54.7475V16.017C54.7475 15.6449 54.6268 15.3452 54.3853 15.1179C54.1438 14.8878 53.8327 14.7727 53.4521 14.7727C53.1907 14.7727 52.9464 14.8423 52.7191 14.9815C52.4947 15.1207 52.3129 15.3139 52.1737 15.5611C52.0373 15.8054 51.9691 16.0881 51.9691 16.4091V20.5H50.9634ZM64.1374 20.6364C63.5067 20.6364 62.9627 20.4972 62.5053 20.2188C62.0508 19.9375 61.6999 19.5455 61.4528 19.0426C61.2085 18.5369 61.0863 17.9489 61.0863 17.2784C61.0863 16.608 61.2085 16.017 61.4528 15.5057C61.6999 14.9915 62.0437 14.5909 62.484 14.304C62.9272 14.0142 63.4442 13.8693 64.0352 13.8693C64.3761 13.8693 64.7127 13.9261 65.0451 14.0398C65.3775 14.1534 65.68 14.3381 65.9528 14.5938C66.2255 14.8466 66.4428 15.1818 66.6048 15.5994C66.7667 16.017 66.8477 16.5312 66.8477 17.142V17.5682H61.8022V16.6989H65.8249C65.8249 16.3295 65.7511 16 65.6033 15.7102C65.4585 15.4205 65.2511 15.1918 64.9812 15.0241C64.7141 14.8565 64.3988 14.7727 64.0352 14.7727C63.6346 14.7727 63.288 14.8722 62.9954 15.071C62.7056 15.267 62.4826 15.5227 62.3263 15.8381C62.1701 16.1534 62.092 16.4915 62.092 16.8523V17.4318C62.092 17.9261 62.1772 18.3452 62.3477 18.6889C62.521 19.0298 62.761 19.2898 63.0678 19.4688C63.3746 19.6449 63.7312 19.733 64.1374 19.733C64.4016 19.733 64.6403 19.696 64.8533 19.6222C65.0692 19.5455 65.2553 19.4318 65.4116 19.2812C65.5678 19.1278 65.6886 18.9375 65.7738 18.7102L66.7454 18.983C66.6431 19.3125 66.4712 19.6023 66.2298 19.8523C65.9883 20.0994 65.69 20.2926 65.3349 20.4318C64.9798 20.5682 64.5806 20.6364 64.1374 20.6364Z" fill="black"/>
<path d="M531.572 10.9388H546.429C546.744 10.9388 547 10.6464 547 10.2857V8.65306C547 8.29237 546.744 8 546.429 8H531.572C531.256 8 531 8.29237 531 8.65306V10.2857C531 10.6464 531.256 10.9388 531.572 10.9388ZM531.572 17.4694H546.429C546.744 17.4694 547 17.177 547 16.8163V15.1837C547 14.823 546.744 14.5306 546.429 14.5306H531.572C531.256 14.5306 531 14.823 531 15.1837V16.8163C531 17.177 531.256 17.4694 531.572 17.4694ZM531.572 24H546.429C546.744 24 547 23.7076 547 23.3469V21.7143C547 21.3536 546.744 21.0612 546.429 21.0612H531.572C531.256 21.0612 531 21.3536 531 21.7143V23.3469C531 23.7076 531.256 24 531.572 24Z" fill="black"/>
</svg>
